# xmcd
#
# Track frame offsets:
#	150
#	14243
#	36008
#
# Disc length: 677 seconds
#
# Revision: 4
# Processed by: cddbd v1.5.2PL0 Copyright (c) Steve Scherf et al.
# Submitted via: audiograbber 1.83.01
#
DISCID=2002a303
DTITLE=Jason Donovan - Rhythm Of The Rain
DYEAR=1990
DGENRE=Pop
TTITLE0=Rhythm Of The Rain
TTITLE1=Rhythm Of The Rain (Extended Version)
TTITLE2=Story Of Me Life
EXTD=
EXTT0=
EXTT1=
EXTT2=
PLAYORDER=
